# xmcd
#
# Track frame offsets: 
#        150
#        28840
#        50810
#        71911
#        101188
#        121693
#        135202
#        157116
#        177760
#        195418
#        209707
#        235556
#
# Disc length: 3354 seconds
#
# Revision: 0
# Processed by: cddbd v1.5.1PL0 Copyright (c) Steve Scherf et al.
# Submitted via: ExactAudioCopy v0.95a5
#
DISCID=aa0d180c
DTITLE=Luther Allison - Bad Love
DYEAR=1900
DGENRE=Blues
TTITLE0=Bad Love
TTITLE1=I Wanna Know
TTITLE2=She Was Born That Way
TTITLE3=Put Your Money Where Your Mouth Is
TTITLE4=Nobody But You
TTITLE5=You've Been Teasin' Me
TTITLE6=Middle Of The Road
TTITLE7=Love String
TTITLE8=Gave It All
TTITLE9=Soul Fixin' Man
TTITLE10=Freedom
TTITLE11=Things That I Used To Do
EXTD=
EXTT0=
EXTT1=
EXTT2=
EXTT3=
EXTT4=
EXTT5=
EXTT6=
EXTT7=
EXTT8=
EXTT9=
EXTT10=
EXTT11=
PLAYORDER=
